<svg xmlns="http://www.w3.org/2000/svg" xmlns:xlink="http://www.w3.org/1999/xlink" xmlns:inkscape="http://www.inkscape.org/namespaces/inkscape" version="1.1" width="288" height="233" viewBox="0 0 288 233">
<defs>
<path id="font_1_2" d="M.33399964 .30233766C.33999635 .32835389 .36299134 .42037965 .43299867 .42037965 .43798829 .42037965 .46199037 .42037965 .48298646 .40734864 .45498658 .402359 .43499757 .37734986 .43499757 .35334779 .43499757 .33735658 .44599916 .31835938 .47299195 .31835938 .49499513 .31835938 .5269928 .3363495 .5269928 .37635804 .5269928 .42837525 .46798707 .4423828 .43399049 .4423828 .37599183 .4423828 .34098817 .38935853 .32899476 .36634828 .3039856 .43237306 .25 .4423828 .22099304 .4423828 .116989139 .4423828 .05999756 .3133545 .05999756 .28834535 .05999756 .27833558 .069992069 .27833558 .07199097 .27833558 .07998657 .27833558 .08299255 .28033448 .084991458 .28933717 .11898804 .39535523 .18499756 .42037965 .21899414 .42037965 .23799134 .42037965 .272995 .4113617 .272995 .35334779 .272995 .32235719 .2559967 .25532533 .21899414 .11528015 .20298767 .053268434 .16799927 .011245728 .12399292 .011245728 .117996219 .011245728 .09498596 .011245728 .07398987 .024276734 .09899902 .029266358 .12098694 .05027771 .12098694 .07827759 .12098694 .105270389 .09899902 .11328125 .083999637 .11328125 .053985597 .11328125 .0289917 .08728027 .0289917 .055267335 .0289917 .009246826 .07899475-.0107421879 .12298584-.0107421879 .18899536-.0107421879 .22499085 .059280397 .22799683 .0652771 .23999024 .028274537 .27598573-.0107421879 .33599855-.0107421879 .43899537-.0107421879 .49598695 .118270877 .49598695 .14328003 .49598695 .1532898 .4869995 .1532898 .48399354 .1532898 .47499085 .1532898 .47299195 .14929199 .47099305 .14228821 .43798829 .03527832 .36999513 .011245728 .33799745 .011245728 .29899598 .011245728 .2829895 .043273927 .2829895 .07727051 .2829895 .09927368 .2889862 .121276859 .2999878 .16529846L.33399964 .30233766Z"/>
<path id="font_2_64" d="M.27598573 .18710327V.24511719H.010986328V.18710327H.27598573Z"/>
<path id="font_2_57" d="M.47099305 .16503906V.19602967H.37098695V.6507721C.37098695 .6707611 .37098695 .6767578 .35499574 .6767578 .34599305 .6767578 .34298707 .6767578 .33499146 .6647644L.027999878 .19602967V.16503906H.2939911V.07800293C.2939911 .041992189 .2919922 .0309906 .21798706 .0309906H.19699097V0C.23799134 .0029907227 .2899933 .0029907227 .33198548 .0029907227 .37399293 .0029907227 .4269867 .0029907227 .46798707 0V.0309906H.44699098C.37298585 .0309906 .37098695 .041992189 .37098695 .07800293V.16503906H.47099305M.2999878 .19602967H.055999757L.2999878 .56881716V.19602967Z"/>
<path id="font_2_106" d="M.45700074 .17037964C.45700074 .252594 .3939972 .33088685 .2899933 .35191346 .37199403 .37893678 .42999269 .4490509 .42999269 .52809146 .42999269 .6100464 .34199525 .6660156 .24598694 .6660156 .14498902 .6660156 .068984989 .60606387 .068984989 .53009036 .068984989 .49710084 .09098816 .47808839 .11999512 .47808839 .15098572 .47808839 .17098999 .50009158 .17098999 .5290985 .17098999 .57910159 .12399292 .57910159 .10899353 .57910159 .13999939 .62802127 .20599365 .64100649 .24198914 .64100649 .2829895 .64100649 .33799745 .6190338 .33799745 .5290985 .33799745 .51708987 .33599855 .45906068 .30999757 .4149933 .27999879 .36691285 .24598694 .36390687 .22099304 .36291505 .21299744 .36190797 .18899536 .35990907 .18199158 .35990907 .17399597 .35890199 .16699219 .35791017 .16699219 .3479004 .16699219 .33691407 .17399597 .33691407 .19099427 .33691407H.23498535C.31698609 .33691407 .35398866 .2686615 .35398866 .17037964 .35398866 .034469606 .2849884 .0055389406 .24099732 .0055389406 .19799805 .0055389406 .12298584 .022491456 .08799744 .08137512 .12298584 .07637024 .1539917 .09837341 .1539917 .1363678 .1539917 .17237854 .1269989 .19238281 .09799194 .19238281 .07398987 .19238281 .041992189 .17837525 .041992189 .1343689 .041992189 .043441774 .1349945-.022460938 .24398804-.022460938 .3659973-.022460938 .45700074 .06838989 .45700074 .17037964Z"/>
<path id="font_2_107" d="M.44898988 .17396546H.42399598C.4189911 .14398194 .4119873 .099990848 .4019928 .084991458 .394989 .07699585 .32899476 .07699585 .30699159 .07699585H.1269989L.23298645 .17996216C.3889923 .31803895 .44898988 .37210084 .44898988 .47216798 .44898988 .5860901 .35899354 .6660156 .23699951 .6660156 .12399292 .6660156 .049987794 .57411196 .049987794 .48516847 .049987794 .4291687 .099990848 .4291687 .102996829 .4291687 .11999512 .4291687 .15499878 .44117738 .15499878 .48217774 .15499878 .5081787 .13699341 .5341797 .101989749 .5341797 .09399414 .5341797 .09199524 .5341797 .08898926 .5331726 .11199951 .59806826 .1659851 .63500979 .22399903 .63500979 .31498719 .63500979 .35798646 .5541382 .35798646 .47216798 .35798646 .39196778 .30799867 .31297303 .25299073 .25097657L.06098938 .036987306C.049987794 .025985718 .049987794 .023986817 .049987794 0H.42099L.44898988 .17396546Z"/>
<path id="font_2_82" d="M.4189911 0V.0309906H.3869934C.29699708 .0309906 .2939911 .041992189 .2939911 .07902527V.64012148C.2939911 .6640167 .2939911 .6660156 .2709961 .6660156 .20899964 .60227969 .12098694 .60227969 .08898926 .60227969V.57128909C.10899353 .57128909 .16799927 .57128909 .21998596 .5972748V.07902527C.21998596 .042999269 .21699524 .0309906 .1269989 .0309906H.09498596V0C.12998963 .0029907227 .21699524 .0029907227 .25698854 .0029907227 .29699708 .0029907227 .38398744 .0029907227 .4189911 0Z"/>
<path id="font_1_3" d="M.48599244 .38136292C.48999024 .39537049 .48999024 .39736939 .48999024 .40437318 .48999024 .42237855 .47599793 .43138124 .46099855 .43138124 .45098878 .43138124 .43499757 .42536927 .42599488 .41036988 .42399598 .405365 .41600038 .37435914 .4119873 .35635377 .40499879 .33035279 .397995 .30334474 .3919983 .27633668L.34700013 .09628296C.34298707 .08126831 .2999878 .011245728 .23399353 .011245728 .18299866 .011245728 .17199707 .055267335 .17199707 .0922699 .17199707 .1382904 .18899536 .20030213 .22299195 .28833009 .23899842 .3293457 .24299622 .3403473 .24299622 .36035157 .24299622 .405365 .21099854 .4423828 .16099549 .4423828 .06599426 .4423828 .0289917 .29733277 .0289917 .28833009 .0289917 .27833558 .038986207 .27833558 .040985109 .27833558 .050994874 .27833558 .051986696 .28033448 .056991579 .29634095 .083999637 .3903656 .12399292 .42037965 .1579895 .42037965 .1659851 .42037965 .18299866 .42037965 .18299866 .3883667 .18299866 .36335755 .17298889 .3373413 .1659851 .31834413 .12599182 .21231079 .10798645 .1552887 .10798645 .10827637 .10798645 .019256592 .17098999-.0107421879 .22999573-.0107421879 .2689972-.0107421879 .30299378 .0062561037 .33099366 .03425598 .31799317-.017745972 .30599977-.06674194 .2659912-.11973572 .23999024-.15385437 .20199585-.18309021 .1559906-.18309021 .14199829-.18309021 .09700012-.18005371 .07998657-.14074707 .09599304-.14074707 .10899353-.14074707 .12298584-.1287384 .1329956-.11973572 .14299011-.10673523 .14299011-.08773804 .14299011-.056747438 .115997318-.052734376 .10598755-.052734376 .08299255-.052734376 .049987794-.068740848 .049987794-.11773682 .049987794-.16796875 .09399414-.20507813 .1559906-.20507813 .25898744-.20507813 .3619995-.11373901 .3899994-.00074768069L.48599244 .38136292Z"/>
<path id="font_2_56" d="M.44898988 .20091248C.44898988 .31991578 .36698915 .41992188 .25898744 .41992188 .21099854 .41992188 .16799927 .4039154 .13198853 .36891175V.5641022C.1519928 .55778506 .18499756 .55078127 .21699524 .55078127 .33999635 .55078127 .4099884 .6418457 .4099884 .65493777 .4099884 .6609802 .40699769 .6660156 .3999939 .6660156 .3999939 .66607668 .39698792 .66607668 .3919983 .66308596 .37199403 .65408328 .32299806 .63378909 .2559967 .63378909 .21598816 .63409426 .16999817 .641098 .12298584 .6621094 .114990238 .6651001 .11099243 .6651001 .11099243 .6651001 .100997928 .66508486 .100997928 .657074 .100997928 .64108279V.3447113C.100997928 .3266449 .100997928 .31861878 .114990238 .31861878 .12199402 .31861878 .12399292 .32164 .12799073 .32765199 .13899231 .34371949 .17599488 .3979187 .25698854 .3979187 .30899049 .3979187 .33399964 .3517456 .34199525 .3336792 .35798646 .2965393 .3600006 .2574005 .3600006 .20721436 .3600006 .17218018 .3600006 .112197879 .33599855 .07032776 .31199647 .031448366 .2749939 .0055389406 .22898865 .0055389406 .1559906 .0055389406 .09899902 .05836487 .08198547 .1171875 .084991458 .11685181 .08799744 .115859989 .09899902 .115859989 .13198853 .115859989 .14898682 .14085388 .14898682 .16485596 .14898682 .18885803 .13198853 .21386719 .09899902 .21386719 .084991458 .21386719 .049987794 .2068634 .049987794 .16085816 .049987794 .07432556 .11898804-.022460938 .23098755-.022460938 .34700013-.022460938 .44898988 .07331848 .44898988 .20019531V.20091248Z"/>
<path id="font_3_1" d="M.33099366-.2400055C.33099366-.23701477 .33099366-.23500061 .31399537-.21800232 .18899536-.0920105 .15699768 .09700012 .15699768 .25 .15699768 .42399598 .19499207 .59799197 .31799317 .72299197 .33099366 .73498538 .33099366 .7369995 .33099366 .73999026 .33099366 .746994 .32699586 .75 .32099916 .75 .31098939 .75 .22099304 .6819916 .1619873 .5549927 .11099243 .44499208 .09899902 .33399964 .09899902 .25 .09899902 .17199707 .10998535 .050994874 .16499329-.06201172 .22499085-.18501282 .31098939-.25 .32099916-.25 .32699586-.25 .33099366-.24700928 .33099366-.2400055Z"/>
<path id="font_4_1" d="M.6589966 .23046875C.6759949 .23046875 .69400027 .23046875 .69400027 .25045777 .69400027 .27046205 .6759949 .27046205 .6589966 .27046205H.117996219C.100997928 .27046205 .08299255 .27046205 .08299255 .25045777 .08299255 .23046875 .100997928 .23046875 .117996219 .23046875H.6589966Z"/>
<path id="font_3_4" d="M.1269989 .07699585 .23298645 .18003845C.3889923 .31811524 .44898988 .3721466 .44898988 .47216798 .44898988 .5860901 .35899354 .6660156 .23699951 .6660156 .12399292 .6660156 .049987794 .57411196 .049987794 .48516847 .049987794 .4291687 .099990848 .4291687 .102996829 .4291687 .11999512 .4291687 .15499878 .44117738 .15499878 .48217774 .15499878 .5081787 .13699341 .5341797 .101989749 .5341797 .09399414 .5341797 .09199524 .5341797 .08898926 .5331726 .11199951 .59806826 .1659851 .63500979 .22399903 .63500979 .31498719 .63500979 .35798646 .5541382 .35798646 .47216798 .35798646 .39215089 .30799867 .31311036 .25299073 .25108338L.06098938 .036987306C.049987794 .025985718 .049987794 .023986817 .049987794 0H.42099L.44898988 .17404175H.42399598C.4189911 .14402771 .4119873 .1000061 .4019928 .084991458 .394989 .07699585 .32899476 .07699585 .30699159 .07699585H.1269989Z"/>
<path id="font_1_1" d="M.20298767 .0009918213C.20298767 .066986087 .17799378 .10598755 .13899231 .10598755 .10598755 .10598755 .085998538 .08099365 .085998538 .052993776 .085998538 .025985718 .10598755 0 .13899231 0 .15098572 0 .1639862 .0039978029 .17399597 .0129852299 .1769867 .01499939 .17799378 .015991211 .1789856 .015991211 .17999268 .015991211 .18099976 .01499939 .18099976 .0009918213 .18099976-.07316589 .1459961-.13328552 .11299133-.16635132 .101989749-.17736817 .101989749-.17936707 .101989749-.18237305 .101989749-.18936157 .10699463-.19335938 .11199951-.19335938 .12298584-.19335938 .20298767-.116256717 .20298767 .0009918213Z"/>
<path id="font_3_3" d="M.45999146 .31976319C.45999146 .39982606 .45498658 .47988893 .41999818 .5539398 .37399293 .65000918 .2919922 .6660156 .25 .6660156 .18998719 .6660156 .116989139 .64001467 .07598877 .54693606 .04399109 .47789 .038986207 .39982606 .038986207 .31976319 .038986207 .24472046 .042999269 .15464783 .083999637 .07859802 .1269989-.0024719239 .19999695-.022460938 .24899292-.022460938 .30299378-.022460938 .3789978-.0014648438 .4229889 .09359741 .45498658 .16265869 .45999146 .2407074 .45999146 .31976319M.24899292-.00047302247C.20999146-.00047302247 .15098572 .024551392 .1329956 .12062073 .12199402 .18066406 .12199402 .2727356 .12199402 .3317871 .12199402 .39582826 .12199402 .46188355 .12998963 .5159149 .14898682 .63500979 .22399903 .64401248 .24899292 .64401248 .28199769 .64401248 .34799195 .6259918 .36698915 .52693179 .3769989 .47088624 .3769989 .39482118 .3769989 .3317871 .3769989 .25672914 .3769989 .18867493 .3659973 .12461853 .35099793 .029556275 .2939911-.00047302247 .24899292-.00047302247Z"/>
<path id="font_3_2" d="M.2889862 .25C.2889862 .32798768 .27799989 .44898988 .22299195 .56199648 .16299439 .68499758 .07699585 .75 .066986087 .75 .06098938 .75 .056991579 .74598696 .056991579 .73999026 .056991579 .7369995 .056991579 .73498538 .07598877 .71699526 .17399597 .6179962 .23098755 .45899964 .23098755 .25 .23098755 .07899475 .19400025-.09700012 .069992069-.2230072 .056991579-.23500061 .056991579-.23701477 .056991579-.2400055 .056991579-.2460022 .06098938-.25 .066986087-.25 .07699585-.25 .16699219-.18200684 .22599793-.055007936 .2769928 .054992677 .2889862 .16600037 .2889862 .25Z"/>
<path id="font_5_1" d="M.74398806 .2263794C.7599945 .2263794 .7839966 .2263794 .7839966 .25038148 .7839966 .27539063 .7609863 .27539063 .74398806 .27539063H.147995C.13198853 .27539063 .10798645 .27539063 .10798645 .25138856 .10798645 .2263794 .1309967 .2263794 .147995 .2263794H.74398806Z"/>
<path id="font_6_2" d="M.5049896 .18203736H.47099305C.46798707 .16001892 .45799256 .100997928 .44499208 .09098816 .43699647 .084991458 .3600006 .084991458 .34599305 .084991458H.1619873C.2669983 .17803955 .3019867 .20603943 .3619995 .25306703 .43598939 .312088 .5049896 .374115 .5049896 .46914674 .5049896 .5900879 .39898683 .6640625 .2709961 .6640625 .14698792 .6640625 .06298828 .57710269 .06298828 .4851532 .06298828 .43414308 .10598755 .42915345 .115997318 .42915345 .13999939 .42915345 .16899109 .44615174 .16899109 .48214723 .16899109 .5001526 .1619873 .53515627 .10998535 .53515627 .14099121 .6060791 .20899964 .62805178 .2559967 .62805178 .35598756 .62805178 .4079895 .5501404 .4079895 .46914674 .4079895 .38212586 .34599305 .3130951 .31399537 .27708436L.07299805 .038986207C.06298828 .02999878 .06298828 .027999878 .06298828 0H.47499085L.5049896 .18203736Z"/>
<path id="font_5_2" d="M.44299317-.84217837 .24699402-.45318605C.24198914-.44317628 .23899842-.43717958 .23098755-.43717958 .22698975-.43717958 .22499085-.43717958 .21499634-.44517518L.10798645-.5161743C.09399414-.525177 .09399414-.5301819 .09399414-.5331726 .09399414-.5391846 .09899902-.5471802 .10798645-.5471802 .11199951-.5471802 .11399841-.5471802 .1269989-.5381775 .13798523-.5301819 .16699219-.5101776 .1789856-.502182L.397995-.9341736C.40499879-.949173 .40699769-.9511719 .42099-.9511719 .42999269-.9511719 .44099427-.9511719 .45098878-.9321747L.95399478 .003829956C.96199038 .016815186 .96199038 .018829346 .96199038 .02381897 .96199038 .03982544 .94898989 .048828126 .9379883 .048828126 .9229889 .048828126 .91799929 .03982544 .9119873 .027816773L.44299317-.84217837Z"/>
<path id="font_6_3" d="M.272995 .33428956C.35099793 .33428956 .40699769 .2803192 .40699769 .1733551 .40699769 .04940796 .33499146 .012466431 .2769928 .012466431 .23699951 .012466431 .14898682 .0234375 .10699463 .082351688 .1539917 .084350589 .16499329 .11735535 .16499329 .13835144 .16499329 .17034912 .14099121 .19335938 .10998535 .19335938 .08198547 .19335938 .053985597 .17634583 .053985597 .13534546 .053985597 .041412355 .1579895-.01953125 .2789917-.01953125 .41799928-.01953125 .5139923 .07336426 .5139923 .1733551 .5139923 .2513275 .44999696 .32929994 .33999635 .35229493 .44499208 .39024354 .48298646 .4650879 .48298646 .5260773 .48298646 .60505679 .3919983 .6640625 .2809906 .6640625 .16999817 .6640625 .084991458 .61006167 .084991458 .5300751 .084991458 .49606324 .10699463 .47706605 .13699341 .47706605 .16799927 .47706605 .18798828 .5000763 .18798828 .5280762 .18798828 .5570679 .16799927 .57806399 .13699341 .5800781 .17199707 .62405398 .24099732 .63505557 .27799989 .63505557 .32299806 .63505557 .38598634 .6130676 .38598634 .5260773 .38598634 .48406983 .37199403 .43814088 .34599305 .4072113 .31298829 .36927796 .2849884 .3672943 .23498535 .36428834 .20999146 .3623047 .20799256 .3623047 .20298767 .3612976 .20098877 .3612976 .19299317 .3592987 .19299317 .34829713 .19299317 .33428956 .20199585 .33428956 .21899414 .33428956H.272995Z"/>
<path id="font_6_1" d="M.33499146 .63612368C.33499146 .6630554 .33299256 .6640625 .30499269 .6640625 .24099732 .6014404 .1499939 .6004486 .10899353 .6004486V.5644531C.1329956 .5644531 .19898987 .5644531 .2539978 .592453V.08203125C.2539978 .04899597 .2539978 .035995485 .1539917 .035995485H.115997318V0C.13398743 .0009918213 .25698854 .0039978029 .2939911 .0039978029 .32499696 .0039978029 .45098878 .0009918213 .47299195 0V.035995485H.43499757C.33499146 .035995485 .33499146 .04899597 .33499146 .08203125V.63612368Z"/>
<path id="font_6_4" d="M.1499939 .3274536C.1499939 .40945436 .15699768 .48303224 .19499207 .543869 .22898865 .5978699 .2829895 .63505557 .34700013 .63505557 .3769989 .63505557 .4169922 .62701418 .43699647 .5998688 .4119873 .5978699 .3909912 .5808716 .3909912 .5518799 .3909912 .5268707 .4079895 .5048828 .43798829 .5048828 .46798707 .5048828 .48599244 .5248718 .48599244 .5538788 .48599244 .6119385 .44400025 .6640625 .34498597 .6640625 .20098877 .6640625 .053985597 .5318756 .053985597 .3174591 .053985597 .05845642 .17599488-.01953125 .28599549-.01953125 .4079895-.01953125 .5139923 .07345581 .5139923 .20445252 .5139923 .33145143 .41299439 .42546083 .29599 .42546083 .21598816 .42546083 .17199707 .37245179 .1499939 .3274536M.28599549 .012466431C.23599243 .012466431 .19699097 .04145813 .17599488 .08546448 .16099549 .11546326 .15299988 .16545105 .15299988 .22544861 .15299988 .32244874 .21099854 .39746095 .29100038 .39746095 .33699037 .39746095 .36799623 .37945558 .3929901 .342453 .4169922 .30445863 .41799928 .26245118 .41799928 .20445252 .41799928 .14746094 .41799928 .10545349 .3909912 .066467288 .36698915 .031463624 .33499146 .012466431 .28599549 .012466431Z"/>
</defs>
<path transform="matrix(1.00009,0,0,-1.00005,142.84123,118.42426)" stroke-width=".3985" stroke-linecap="butt" stroke-miterlimit="10" stroke-linejoin="miter" fill="none" stroke="#000000" d="M-141.73404 0H141.27576"/>
<path transform="matrix(1.00009,0,0,-1.00005,284.1297,118.42426)" stroke-width=".31879" stroke-linecap="round" stroke-linejoin="round" fill="none" stroke="#000000" d="M-1.19551 1.59401C-1.09587 .99626 0 .09961 .29886 0 0-.09961-1.09587-.99626-1.19551-1.59401"/>
<use data-text="x" xlink:href="#font_1_2" transform="matrix(9.963496,0,0,-9.963098,281.74073,126.23366)"/>
<path transform="matrix(1.00009,0,0,-1.00005,142.84123,118.42426)" stroke-width=".3985" stroke-linecap="butt" stroke-miterlimit="10" stroke-linejoin="miter" fill="none" stroke="#000000" d="M-113.38724-1.4174V1.4174"/>
<use data-text="-" xlink:href="#font_2_64" transform="matrix(9.963496,0,0,-9.963098,25.29364,130.10684)"/>
<use data-text="4" xlink:href="#font_2_57" transform="matrix(9.963496,0,0,-9.963098,28.611496,130.10684)"/>
<path transform="matrix(1.00009,0,0,-1.00005,142.84123,118.42426)" stroke-width=".3985" stroke-linecap="butt" stroke-miterlimit="10" stroke-linejoin="miter" fill="none" stroke="#000000" d="M-85.04042-1.4174V1.4174"/>
<use data-text="-" xlink:href="#font_2_64" transform="matrix(9.963496,0,0,-9.963098,53.643205,129.99684)"/>
<use data-text="3" xlink:href="#font_2_106" transform="matrix(9.963496,0,0,-9.963098,56.96106,129.99684)"/>
<path transform="matrix(1.00009,0,0,-1.00005,142.84123,118.42426)" stroke-width=".3985" stroke-linecap="butt" stroke-miterlimit="10" stroke-linejoin="miter" fill="none" stroke="#000000" d="M-56.69362-1.4174V1.4174"/>
<use data-text="-" xlink:href="#font_2_64" transform="matrix(9.963496,0,0,-9.963098,81.99275,129.99684)"/>
<use data-text="2" xlink:href="#font_2_107" transform="matrix(9.963496,0,0,-9.963098,85.31061,129.99684)"/>
<path transform="matrix(1.00009,0,0,-1.00005,142.84123,118.42426)" stroke-width=".3985" stroke-linecap="butt" stroke-miterlimit="10" stroke-linejoin="miter" fill="none" stroke="#000000" d="M-28.3468-1.4174V1.4174"/>
<use data-text="-" xlink:href="#font_2_64" transform="matrix(9.963496,0,0,-9.963098,110.34231,129.99684)"/>
<use data-text="1" xlink:href="#font_2_82" transform="matrix(9.963496,0,0,-9.963098,113.660167,129.99684)"/>
<path transform="matrix(1.00009,0,0,-1.00005,142.84123,118.42426)" stroke-width=".3985" stroke-linecap="butt" stroke-miterlimit="10" stroke-linejoin="miter" fill="none" stroke="#000000" d="M28.3468-1.4174V1.4174"/>
<use data-text="1" xlink:href="#font_2_82" transform="matrix(9.963496,0,0,-9.963098,168.69956,129.99684)"/>
<path transform="matrix(1.00009,0,0,-1.00005,142.84123,118.42426)" stroke-width=".3985" stroke-linecap="butt" stroke-miterlimit="10" stroke-linejoin="miter" fill="none" stroke="#000000" d="M56.69362-1.4174V1.4174"/>
<use data-text="2" xlink:href="#font_2_107" transform="matrix(9.963496,0,0,-9.963098,197.0491,129.99684)"/>
<path transform="matrix(1.00009,0,0,-1.00005,142.84123,118.42426)" stroke-width=".3985" stroke-linecap="butt" stroke-miterlimit="10" stroke-linejoin="miter" fill="none" stroke="#000000" d="M85.04042-1.4174V1.4174"/>
<use data-text="3" xlink:href="#font_2_106" transform="matrix(9.963496,0,0,-9.963098,225.39867,129.99684)"/>
<path transform="matrix(1.00009,0,0,-1.00005,142.84123,118.42426)" stroke-width=".3985" stroke-linecap="butt" stroke-miterlimit="10" stroke-linejoin="miter" fill="none" stroke="#000000" d="M113.38724-1.4174V1.4174"/>
<use data-text="4" xlink:href="#font_2_57" transform="matrix(9.963496,0,0,-9.963098,253.74822,130.10684)"/>
<path transform="matrix(1.00009,0,0,-1.00005,142.84123,118.42426)" stroke-width=".3985" stroke-linecap="butt" stroke-miterlimit="10" stroke-linejoin="miter" fill="none" stroke="#000000" d="M0-113.38724V112.92896"/>
<path transform="matrix(0,-1.00005,-1.00009,-0,142.84123,5.489662)" stroke-width=".31879" stroke-linecap="round" stroke-linejoin="round" fill="none" stroke="#000000" d="M-1.19551 1.59401C-1.09587 .99626 0 .09961 .29886 0 0-.09961-1.09587-.99626-1.19551-1.59401"/>
<use data-text="y" xlink:href="#font_1_3" transform="matrix(9.963496,0,0,-9.963098,134.07845,6.207657)"/>
<path transform="matrix(1.00009,0,0,-1.00005,142.84123,118.42426)" stroke-width=".3985" stroke-linecap="butt" stroke-miterlimit="10" stroke-linejoin="miter" fill="none" stroke="#000000" d="M-2.83484-99.21382H2.83441"/>
<path transform="matrix(1.00009,0,0,-1.00005,142.84123,118.42426)" stroke-width=".3985" stroke-linecap="butt" stroke-miterlimit="10" stroke-linejoin="miter" fill="none" stroke="#000000" d="M-2.83484-85.04042H2.83441"/>
<path transform="matrix(1.00009,0,0,-1.00005,142.84123,118.42426)" stroke-width=".3985" stroke-linecap="butt" stroke-miterlimit="10" stroke-linejoin="miter" fill="none" stroke="#000000" d="M-2.83484-70.867H2.83441"/>
<path transform="matrix(1.00009,0,0,-1.00005,142.84123,118.42426)" stroke-width=".3985" stroke-linecap="butt" stroke-miterlimit="10" stroke-linejoin="miter" fill="none" stroke="#000000" d="M-2.83484-56.69362H2.83441"/>
<path transform="matrix(1.00009,0,0,-1.00005,142.84123,118.42426)" stroke-width=".3985" stroke-linecap="butt" stroke-miterlimit="10" stroke-linejoin="miter" fill="none" stroke="#000000" d="M-2.83484-42.5202H2.83441"/>
<path transform="matrix(1.00009,0,0,-1.00005,142.84123,118.42426)" stroke-width=".3985" stroke-linecap="butt" stroke-miterlimit="10" stroke-linejoin="miter" fill="none" stroke="#000000" d="M-2.83484-28.3468H2.83441"/>
<path transform="matrix(1.00009,0,0,-1.00005,142.84123,118.42426)" stroke-width=".3985" stroke-linecap="butt" stroke-miterlimit="10" stroke-linejoin="miter" fill="none" stroke="#000000" d="M-2.83484-14.17339H2.83441"/>
<path transform="matrix(1.00009,0,0,-1.00005,142.84123,118.42426)" stroke-width=".3985" stroke-linecap="butt" stroke-miterlimit="10" stroke-linejoin="miter" fill="none" stroke="#000000" d="M-2.83484 0H2.83441"/>
<path transform="matrix(1.00009,0,0,-1.00005,142.84123,118.42426)" stroke-width=".3985" stroke-linecap="butt" stroke-miterlimit="10" stroke-linejoin="miter" fill="none" stroke="#000000" d="M-2.83484 14.17339H2.83441"/>
<path transform="matrix(1.00009,0,0,-1.00005,142.84123,118.42426)" stroke-width=".3985" stroke-linecap="butt" stroke-miterlimit="10" stroke-linejoin="miter" fill="none" stroke="#000000" d="M-2.83484 28.3468H2.83441"/>
<path transform="matrix(1.00009,0,0,-1.00005,142.84123,118.42426)" stroke-width=".3985" stroke-linecap="butt" stroke-miterlimit="10" stroke-linejoin="miter" fill="none" stroke="#000000" d="M-2.83484 42.5202H2.83441"/>
<path transform="matrix(1.00009,0,0,-1.00005,142.84123,118.42426)" stroke-width=".3985" stroke-linecap="butt" stroke-miterlimit="10" stroke-linejoin="miter" fill="none" stroke="#000000" d="M-2.83484 56.69362H2.83441"/>
<path transform="matrix(1.00009,0,0,-1.00005,142.84123,118.42426)" stroke-width=".3985" stroke-linecap="butt" stroke-miterlimit="10" stroke-linejoin="miter" fill="none" stroke="#000000" d="M-2.83484 70.867H2.83441"/>
<path transform="matrix(1.00009,0,0,-1.00005,142.84123,118.42426)" stroke-width=".3985" stroke-linecap="butt" stroke-miterlimit="10" stroke-linejoin="miter" fill="none" stroke="#000000" d="M-2.83484 85.04042H2.83441"/>
<path transform="matrix(1.00009,0,0,-1.00005,142.84123,118.42426)" stroke-width=".3985" stroke-linecap="butt" stroke-miterlimit="10" stroke-linejoin="miter" fill="none" stroke="#000000" d="M-2.83484 99.21382H2.83441"/>
<use data-text="-" xlink:href="#font_2_64" transform="matrix(9.963496,0,0,-9.963098,128.18592,192.50296)"/>
<use data-text="5" xlink:href="#font_2_56" transform="matrix(9.963496,0,0,-9.963098,131.50377,192.50296)"/>
<use data-text="5" xlink:href="#font_2_56" transform="matrix(9.963496,0,0,-9.963098,131.50421,50.761888)"/>
<path transform="matrix(1.00009,0,0,-1.00005,142.84123,118.42426)" stroke-width=".3985" stroke-linecap="butt" stroke-miterlimit="10" stroke-linejoin="miter" fill="none" stroke="#ff0000" d="M-73.70186-101.70935-67.56026-56.76152-61.41864-21.328-55.27704 5.45601-49.13544 24.45569-42.99384 36.53625-36.85222 42.56216-30.71062 43.39847-24.569 39.91005-18.4274 32.96133-12.2858 23.4178-6.1442 12.14413-.00258 .00517 6.13899-12.1342 12.28061-23.40894 18.42221-32.9542 24.56383-39.90529 30.70541-43.39717 36.84703-42.56519 42.98863-36.54404 49.13025-24.46887 55.27185-5.47528 61.41347 21.30182 67.55505 56.72777 73.69667 101.66739"/>
<path transform="matrix(1.00009,0,0,-1.00005,142.84123,118.42426)" d="M-53.85876 0C-53.85876 .78282-55.12796 1.4174-56.69362 1.4174-58.25926 1.4174-59.52846 .78282-59.52846 0-59.52846-.78282-58.25926-1.4174-56.69362-1.4174-55.12796-1.4174-53.85876-.78282-53.85876 0ZM-56.69362 0" fill="#0000ff"/>
<path transform="matrix(1.00009,0,0,-1.00005,142.84123,118.42426)" stroke-width=".3985" stroke-linecap="butt" stroke-miterlimit="10" stroke-linejoin="miter" fill="none" stroke="#0000ff" d="M-53.85876 0C-53.85876 .78282-55.12796 1.4174-56.69362 1.4174-58.25926 1.4174-59.52846 .78282-59.52846 0-59.52846-.78282-58.25926-1.4174-56.69362-1.4174-55.12796-1.4174-53.85876-.78282-53.85876 0ZM-56.69362 0"/>
<use data-text="(" xlink:href="#font_3_1" transform="matrix(9.963496,0,0,-9.963098,52.731126,112.412967)" fill="#0000ff"/>
<use data-text="&#x2212;" xlink:href="#font_4_1" transform="matrix(9.963496,0,0,-9.963098,56.60547,112.412967)" fill="#0000ff"/>
<use data-text="2" xlink:href="#font_3_4" transform="matrix(9.963496,0,0,-9.963098,64.35516,112.412967)" fill="#0000ff"/>
<use data-text="," xlink:href="#font_1_1" transform="matrix(9.963496,0,0,-9.963098,69.3376,112.412967)" fill="#0000ff"/>
<use data-text="0" xlink:href="#font_3_3" transform="matrix(9.963496,0,0,-9.963098,73.765,112.412967)" fill="#0000ff"/>
<use data-text=")" xlink:href="#font_3_2" transform="matrix(9.963496,0,0,-9.963098,78.74675,112.412967)" fill="#0000ff"/>
<path transform="matrix(1.00009,0,0,-1.00005,142.84123,118.42426)" d="M2.83484 0C2.83484 .78282 1.56564 1.4174 0 1.4174-1.56564 1.4174-2.83484 .78282-2.83484 0-2.83484-.78282-1.56564-1.4174 0-1.4174 1.56564-1.4174 2.83484-.78282 2.83484 0ZM0 0" fill="#0000ff"/>
<path transform="matrix(1.00009,0,0,-1.00005,142.84123,118.42426)" stroke-width=".3985" stroke-linecap="butt" stroke-miterlimit="10" stroke-linejoin="miter" fill="none" stroke="#0000ff" d="M2.83484 0C2.83484 .78282 1.56564 1.4174 0 1.4174-1.56564 1.4174-2.83484 .78282-2.83484 0-2.83484-.78282-1.56564-1.4174 0-1.4174 1.56564-1.4174 2.83484-.78282 2.83484 0ZM0 0"/>
<use data-text="(" xlink:href="#font_3_1" transform="matrix(9.963496,0,0,-9.963098,146.36154,112.412967)" fill="#0000ff"/>
<use data-text="0" xlink:href="#font_3_3" transform="matrix(9.963496,0,0,-9.963098,150.22739,112.412967)" fill="#0000ff"/>
<use data-text="," xlink:href="#font_1_1" transform="matrix(9.963496,0,0,-9.963098,155.21836,112.412967)" fill="#0000ff"/>
<use data-text="0" xlink:href="#font_3_3" transform="matrix(9.963496,0,0,-9.963098,159.64673,112.412967)" fill="#0000ff"/>
<use data-text=")" xlink:href="#font_3_2" transform="matrix(9.963496,0,0,-9.963098,164.62848,112.412967)" fill="#0000ff"/>
<path transform="matrix(1.00009,0,0,-1.00005,142.84123,118.42426)" d="M59.52846 0C59.52846 .78282 58.25926 1.4174 56.69362 1.4174 55.12796 1.4174 53.85876 .78282 53.85876 0 53.85876-.78282 55.12796-1.4174 56.69362-1.4174 58.25926-1.4174 59.52846-.78282 59.52846 0ZM56.69362 0" fill="#0000ff"/>
<path transform="matrix(1.00009,0,0,-1.00005,142.84123,118.42426)" stroke-width=".3985" stroke-linecap="butt" stroke-miterlimit="10" stroke-linejoin="miter" fill="none" stroke="#0000ff" d="M59.52846 0C59.52846 .78282 58.25926 1.4174 56.69362 1.4174 55.12796 1.4174 53.85876 .78282 53.85876 0 53.85876-.78282 55.12796-1.4174 56.69362-1.4174 58.25926-1.4174 59.52846-.78282 59.52846 0ZM56.69362 0"/>
<use data-text="(" xlink:href="#font_3_1" transform="matrix(9.963496,0,0,-9.963098,203.05966,112.412967)" fill="#0000ff"/>
<use data-text="2" xlink:href="#font_3_4" transform="matrix(9.963496,0,0,-9.963098,206.9255,112.412967)" fill="#0000ff"/>
<use data-text="," xlink:href="#font_1_1" transform="matrix(9.963496,0,0,-9.963098,211.91645,112.412967)" fill="#0000ff"/>
<use data-text="0" xlink:href="#font_3_3" transform="matrix(9.963496,0,0,-9.963098,216.34485,112.412967)" fill="#0000ff"/>
<use data-text=")" xlink:href="#font_3_2" transform="matrix(9.963496,0,0,-9.963098,221.3266,112.412967)" fill="#0000ff"/>
<path transform="matrix(1.00009,0,0,-1.00005,142.84123,118.42426)" d="M-29.897 43.64285C-29.897 44.42567-31.16621 45.06027-32.73186 45.06027-34.29752 45.06027-35.56671 44.42567-35.56671 43.64285-35.56671 42.86003-34.29752 42.22543-32.73186 42.22543-31.16621 42.22543-29.897 42.86003-29.897 43.64285ZM-32.73186 43.64285" fill="#0000ff"/>
<path transform="matrix(1.00009,0,0,-1.00005,142.84123,118.42426)" stroke-width=".3985" stroke-linecap="butt" stroke-miterlimit="10" stroke-linejoin="miter" fill="none" stroke="#0000ff" d="M-29.897 43.64285C-29.897 44.42567-31.16621 45.06027-32.73186 45.06027-34.29752 45.06027-35.56671 44.42567-35.56671 43.64285-35.56671 42.86003-34.29752 42.22543-32.73186 42.22543-31.16621 42.22543-29.897 42.86003-29.897 43.64285ZM-32.73186 43.64285"/>
<use data-text="(" xlink:href="#font_3_1" transform="matrix(9.963496,0,0,-9.963098,64.62019,65.83964)" fill="#0000ff"/>
<use data-text="&#x2212;" xlink:href="#font_5_1" transform="matrix(6.9744279,0,0,-6.9741489,69.84967,61.91745)" fill="#0000ff"/>
<use data-text="2" xlink:href="#font_6_2" transform="matrix(6.9744279,0,0,-6.9741489,76.07724,61.91745)" fill="#0000ff"/>
<path transform="matrix(1.00009,0,0,-1.00005,-160.22805,-39.595628)" stroke-width=".3985" stroke-linecap="butt" stroke-miterlimit="10" stroke-linejoin="miter" fill="none" stroke="#0000ff" d="M229.898-102.94H240.414"/>
<use data-text="&#x221a;" xlink:href="#font_5_2" transform="matrix(6.9744279,0,0,-6.9741489,69.69064,64.62457)" fill="#0000ff"/>
<path transform="matrix(1.00009,0,0,-1.00005,-160.22805,-39.595628)" stroke-width=".3387" stroke-linecap="butt" stroke-miterlimit="10" stroke-linejoin="miter" fill="none" stroke="#0000ff" d="M236.443-104.045H240.414"/>
<use data-text="3" xlink:href="#font_6_3" transform="matrix(6.9744279,0,0,-6.9741489,76.23624,70.40086)" fill="#0000ff"/>
<use data-text="," xlink:href="#font_1_1" transform="matrix(9.963496,0,0,-9.963098,81.40369,65.83964)" fill="#0000ff"/>
<use data-text="1" xlink:href="#font_6_1" transform="matrix(6.9744279,0,0,-6.9741489,90.2995,61.91745)" fill="#0000ff"/>
<use data-text="6" xlink:href="#font_6_4" transform="matrix(6.9744279,0,0,-6.9741489,94.267948,61.91745)" fill="#0000ff"/>
<path transform="matrix(1.00009,0,0,-1.00005,-160.22805,-39.595628)" stroke-width=".3985" stroke-linecap="butt" stroke-miterlimit="10" stroke-linejoin="miter" fill="none" stroke="#0000ff" d="M247.233-102.94H261.72"/>
<use data-text="3" xlink:href="#font_6_3" transform="matrix(6.9744279,0,0,-6.9741489,87.02721,70.40086)" fill="#0000ff"/>
<use data-text="&#x221a;" xlink:href="#font_5_2" transform="matrix(6.9744279,0,0,-6.9741489,90.998569,64.62457)" fill="#0000ff"/>
<path transform="matrix(1.00009,0,0,-1.00005,-160.22805,-39.595628)" stroke-width=".3387" stroke-linecap="butt" stroke-miterlimit="10" stroke-linejoin="miter" fill="none" stroke="#0000ff" d="M257.749-104.045H261.72"/>
<use data-text="3" xlink:href="#font_6_3" transform="matrix(6.9744279,0,0,-6.9741489,97.54414,70.40086)" fill="#0000ff"/>
<use data-text=")" xlink:href="#font_3_2" transform="matrix(9.963496,0,0,-9.963098,102.71159,65.83964)" fill="#0000ff"/>
<path transform="matrix(1.00009,0,0,-1.00005,142.84123,118.42426)" d="M35.56671-43.64285C35.56671-42.86003 34.29752-42.22543 32.73186-42.22543 31.16621-42.22543 29.897-42.86003 29.897-43.64285 29.897-44.42567 31.16621-45.06027 32.73186-45.06027 34.29752-45.06027 35.56671-44.42567 35.56671-43.64285ZM32.73186-43.64285" fill="#0000ff"/>
<path transform="matrix(1.00009,0,0,-1.00005,142.84123,118.42426)" stroke-width=".3985" stroke-linecap="butt" stroke-miterlimit="10" stroke-linejoin="miter" fill="none" stroke="#0000ff" d="M35.56671-43.64285C35.56671-42.86003 34.29752-42.22543 32.73186-42.22543 31.16621-42.22543 29.897-42.86003 29.897-43.64285 29.897-44.42567 31.16621-45.06027 32.73186-45.06027 34.29752-45.06027 35.56671-44.42567 35.56671-43.64285ZM32.73186-43.64285"/>
<use data-text="(" xlink:href="#font_3_1" transform="matrix(9.963496,0,0,-9.963098,179.0965,174.00705)" fill="#0000ff"/>
<use data-text="2" xlink:href="#font_6_2" transform="matrix(6.9744279,0,0,-6.9741489,187.43924,170.08486)" fill="#0000ff"/>
<path transform="matrix(1.00009,0,0,-1.00005,-45.751745,68.57178)" stroke-width=".3985" stroke-linecap="butt" stroke-miterlimit="10" stroke-linejoin="miter" fill="none" stroke="#0000ff" d="M229.898-102.94H240.414"/>
<use data-text="&#x221a;" xlink:href="#font_5_2" transform="matrix(6.9744279,0,0,-6.9741489,184.16695,172.79198)" fill="#0000ff"/>
<path transform="matrix(1.00009,0,0,-1.00005,-45.751745,68.57178)" stroke-width=".3387" stroke-linecap="butt" stroke-miterlimit="10" stroke-linejoin="miter" fill="none" stroke="#0000ff" d="M236.443-104.045H240.414"/>
<use data-text="3" xlink:href="#font_6_3" transform="matrix(6.9744279,0,0,-6.9741489,190.71254,178.56827)" fill="#0000ff"/>
<use data-text="," xlink:href="#font_1_1" transform="matrix(9.963496,0,0,-9.963098,195.87999,174.00705)" fill="#0000ff"/>
<use data-text="&#x2212;" xlink:href="#font_5_1" transform="matrix(6.9744279,0,0,-6.9741489,201.6625,170.08486)" fill="#0000ff"/>
<use data-text="1" xlink:href="#font_6_1" transform="matrix(6.9744279,0,0,-6.9741489,207.89008,170.08486)" fill="#0000ff"/>
<use data-text="6" xlink:href="#font_6_4" transform="matrix(6.9744279,0,0,-6.9741489,211.85852,170.08486)" fill="#0000ff"/>
<path transform="matrix(1.00009,0,0,-1.00005,-45.751745,68.57178)" stroke-width=".3985" stroke-linecap="butt" stroke-miterlimit="10" stroke-linejoin="miter" fill="none" stroke="#0000ff" d="M247.233-102.94H261.72"/>
<use data-text="3" xlink:href="#font_6_3" transform="matrix(6.9744279,0,0,-6.9741489,201.50351,178.56827)" fill="#0000ff"/>
<use data-text="&#x221a;" xlink:href="#font_5_2" transform="matrix(6.9744279,0,0,-6.9741489,205.47487,172.79198)" fill="#0000ff"/>
<path transform="matrix(1.00009,0,0,-1.00005,-45.751745,68.57178)" stroke-width=".3387" stroke-linecap="butt" stroke-miterlimit="10" stroke-linejoin="miter" fill="none" stroke="#0000ff" d="M257.749-104.045H261.72"/>
<use data-text="3" xlink:href="#font_6_3" transform="matrix(6.9744279,0,0,-6.9741489,212.02045,178.56827)" fill="#0000ff"/>
<use data-text=")" xlink:href="#font_3_2" transform="matrix(9.963496,0,0,-9.963098,217.1879,174.00705)" fill="#0000ff"/>
</svg>
